<?xml version="1.0" encoding="UTF-8"?>
<svg version="1.1" viewBox="0 0 16 16" xmlns="http://www.w3.org/2000/svg">
<g color="#e5e9f0" fill="#e5e9f0">
<path d="m9 1h6v2h-6zm0 3h6v2h-6zm0 3h6v2h-6z" overflow="visible"/>
<path d="m1 1v8h7v-8h-7zm3.5 1a1.5 1.5 0 0 1 1.5 1.5 1.5 1.5 0 0 1-1.5 1.5 1.5 1.5 0 0 1-1.5-1.5 1.5 1.5 0 0 1 1.5-1.5zm-2.5 3h0.49219c0.47934 0.62208 1.2193 1.0508 2.0078 1.0508s1.5285-0.4287 2.0078-1.0508h0.49219v3h-5v-3z" style="fill:#e5e9f0;paint-order:markers fill stroke"/>
<rect x="1" y="10" width="14" height="2" ry="2.7756e-17" style="fill:#e5e9f0;paint-order:markers fill stroke"/>
<rect x="1" y="13" width="14" height="2" ry="2.7756e-17" style="fill:#e5e9f0;paint-order:markers fill stroke"/>
</g>
</svg>
